# Blender v2.93.4 OBJ File: 'instrucctions.blend'
# www.blender.org
o preview_Cube.006
v -0.300000 -0.249998 0.100000
v -0.300000 0.250002 0.100000
v -0.300000 -0.249998 -0.100000
v -0.300000 0.250002 -0.100000
v -0.000000 -0.249998 0.100000
v -0.000000 0.850002 0.100000
v -0.000000 -0.249998 -0.100000
v -0.000000 0.850002 -0.100000
v -0.000000 0.250002 0.100000
v -0.000000 0.250002 -0.100000
v -0.000000 0.350002 -0.100000
v -0.000000 0.350002 0.100000
v 0.100000 0.250002 -0.100000
v 0.100000 -0.249998 -0.100000
v 0.100000 -0.249998 0.100000
v 0.100000 0.850002 -0.100000
v 0.100000 0.850002 0.100000
v 0.100000 0.250002 0.100000
v 0.100000 0.350002 -0.100000
v 0.100000 0.350002 0.100000
v -0.150000 0.055002 -0.005000
v -0.139270 0.053945 -0.005000
v -0.128952 0.050815 -0.005000
v -0.119444 0.045733 -0.005000
v -0.111109 0.038893 -0.005000
v -0.104269 0.030558 -0.005000
v -0.099187 0.021050 -0.005000
v -0.096057 0.010732 -0.005000
v -0.095000 0.000002 -0.005000
v -0.096057 -0.010728 -0.005000
v -0.099187 -0.021046 -0.005000
v -0.104269 -0.030554 -0.005000
v -0.111109 -0.038889 -0.005000
v -0.119444 -0.045729 -0.005000
v -0.128952 -0.050811 -0.005000
v -0.139270 -0.053941 -0.005000
v -0.150000 -0.054998 -0.005000
v -0.160730 -0.053941 -0.005000
v -0.171048 -0.050811 -0.005000
v -0.180556 -0.045729 -0.005000
v -0.188891 -0.038889 -0.005000
v -0.195731 -0.030554 -0.005000
v -0.200813 -0.021046 -0.005000
v -0.203943 -0.010728 -0.005000
v -0.205000 0.000002 -0.005000
v -0.203943 0.010732 -0.005000
v -0.200813 0.021050 -0.005000
v -0.195731 0.030558 -0.005000
v -0.188891 0.038893 -0.005000
v -0.180556 0.045733 -0.005000
v -0.171048 0.050815 -0.005000
v -0.160730 0.053945 -0.005000
v -0.150000 -0.054998 0.100000
v -0.160730 -0.053941 0.100000
v -0.171048 -0.050811 0.100000
v -0.128952 -0.050811 0.100000
v -0.119444 0.045733 0.100000
v -0.119444 -0.045729 0.100000
v -0.139270 -0.053941 0.100000
v -0.104269 -0.030554 0.100000
v -0.104269 0.030558 0.100000
v -0.095000 0.000002 0.100000
v -0.180556 -0.045729 0.100000
v -0.096057 -0.010728 0.100000
v -0.096057 0.010732 0.100000
v -0.099187 0.021050 0.100000
v -0.111109 -0.038889 0.100000
v -0.099187 -0.021046 0.100000
v -0.111109 0.038893 0.100000
v -0.188891 -0.038889 0.100000
v -0.195731 -0.030554 0.100000
v -0.200813 -0.021046 0.100000
v -0.203943 -0.010728 0.100000
v -0.205000 0.000002 0.100000
v -0.203943 0.010732 0.100000
v -0.195731 0.030558 0.100000
v -0.200813 0.021050 0.100000
v -0.188891 0.038893 0.100000
v -0.180556 0.045733 0.100000
v -0.150000 0.055002 0.100000
v -0.160730 0.053945 0.100000
v -0.128952 0.050815 0.100000
v -0.139270 0.053945 0.100000
v -0.171048 0.050815 0.100000
v 0.300000 0.250002 -0.100000
v 0.300000 -0.249998 -0.100000
v 0.300000 -0.249998 0.100000
v 0.300000 0.250002 0.100000
vt 0.312387 0.972098
vt 0.312387 0.972098
vt 0.312387 0.972098
vt 0.333830 0.970280
vt 0.333830 0.970280
vt 0.333830 0.970280
vt 0.585128 0.014317
vt 0.585128 0.014317
vt 0.585128 0.014317
vt 0.288371 0.457646
vt 0.418889 0.281164
vt 0.428945 0.282115
vt 0.428945 0.183097
vt 0.418889 0.184049
vt 0.288371 0.007566
vt 0.332655 0.970548
vt 0.332655 0.970548
vt 0.332655 0.970548
vt 0.312387 0.972098
vt 0.312387 0.972098
vt 0.312387 0.972098
vt 0.333893 0.966939
vt 0.333893 0.966939
vt 0.333893 0.966939
vt 0.593797 0.548386
vt 0.593797 0.548386
vt 0.593797 0.548386
vt 0.603374 0.015300
vt 0.603374 0.015300
vt 0.603374 0.015300
vt 0.326293 0.961988
vt 0.326293 0.961988
vt 0.326293 0.961988
vt 0.603181 0.015730
vt 0.603181 0.015730
vt 0.603181 0.015730
vt 0.576008 0.542125
vt 0.669724 0.992205
vt 0.576008 0.992205
vt 0.576008 0.005936
vt 0.669724 0.456015
vt 0.576008 0.456015
vt 0.603374 0.015300
vt 0.603374 0.015300
vt 0.593797 0.548386
vt 0.593797 0.548386
vt 0.593797 0.548386
vt 0.593222 0.548636
vt 0.593222 0.548636
vt 0.593222 0.548636
vt 0.332656 0.966963
vt 0.332656 0.966963
vt 0.332656 0.966963
vt 0.332656 0.966963
vt 0.332656 0.966963
vt 0.332656 0.966963
vt 0.332656 0.966963
vt 0.312389 0.968514
vt 0.312389 0.968514
vt 0.312389 0.968514
vt 0.312389 0.968514
vt 0.312389 0.968514
vt 0.312389 0.968514
vt 0.312389 0.968514
vt 0.312389 0.968514
vt 0.312389 0.968514
vt 0.312389 0.968514
vt 0.312389 0.968514
vt 0.312389 0.968514
vt 0.312389 0.968514
vt 0.312389 0.968514
vt 0.312389 0.968514
vt 0.312389 0.968514
vt 0.312389 0.968514
vt 0.312389 0.968514
vt 0.312389 0.968514
vt 0.312389 0.968514
vt 0.312389 0.968514
vt 0.312389 0.968514
vt 0.312389 0.968514
vt 0.312389 0.968514
vt 0.312389 0.968514
vt 0.312389 0.968514
vt 0.312389 0.968514
vt 0.312389 0.968514
vt 0.312389 0.968514
vt 0.312389 0.968514
vt 0.312389 0.968514
vt 0.312389 0.968514
vt 0.312389 0.968514
vt 0.332656 0.966963
vt 0.332656 0.966963
vt 0.332656 0.966963
vt 0.332656 0.966963
vt 0.332656 0.966963
vt 0.332656 0.966963
vt 0.332656 0.966963
vt 0.332656 0.966963
vt 0.332656 0.966963
vt 0.332656 0.966963
vt 0.332656 0.966963
vt 0.332656 0.966963
vt 0.332656 0.966963
vt 0.332656 0.966963
vt 0.332656 0.966963
vt 0.332656 0.966963
vt 0.332656 0.966963
vt 0.332656 0.966963
vt 0.332656 0.966963
vt 0.332656 0.966963
vt 0.332656 0.966963
vt 0.332656 0.966963
vt 0.332656 0.966963
vt 0.332656 0.966963
vt 0.332656 0.966963
vt 0.332656 0.966963
vt 0.312389 0.968514
vt 0.326690 0.962306
vt 0.326690 0.962306
vt 0.326690 0.962306
vt 0.331291 0.968387
vt 0.331291 0.968387
vt 0.331291 0.968387
vt 0.324618 0.967551
vt 0.324618 0.967551
vt 0.324618 0.967551
vt 0.322326 0.966344
vt 0.322326 0.966344
vt 0.322326 0.966344
vt 0.798226 0.004962
vt 0.997993 0.455662
vt 0.798499 0.455041
vt 0.798102 0.542476
vt 0.998108 0.455595
vt 0.798171 0.995145
vt 0.333830 0.970280
vt 0.333830 0.970280
vt 0.333830 0.970280
vt 0.585128 0.014317
vt 0.448670 0.278346
vt 0.457581 0.273771
vt 0.569519 0.457646
vt 0.569519 0.547662
vt 0.569519 0.997742
vt 0.439001 0.281164
vt 0.400309 0.273771
vt 0.409220 0.278346
vt 0.392498 0.267614
vt 0.465392 0.267614
vt 0.471802 0.260112
vt 0.386088 0.260112
vt 0.381325 0.251552
vt 0.476565 0.251552
vt 0.479498 0.242265
vt 0.378392 0.242265
vt 0.377401 0.232606
vt 0.569519 0.007566
vt 0.480489 0.232606
vt 0.378392 0.222947
vt 0.479498 0.222947
vt 0.476565 0.213660
vt 0.381325 0.213660
vt 0.386088 0.205100
vt 0.471802 0.205101
vt 0.465392 0.197598
vt 0.392498 0.197598
vt 0.400309 0.191441
vt 0.457581 0.191441
vt 0.448670 0.186866
vt 0.409220 0.186866
vt 0.439001 0.184049
vt 0.332655 0.970548
vt 0.333893 0.966939
vt 0.593797 0.548386
vt 0.603374 0.015300
vt 0.326293 0.961988
vt 0.603181 0.015730
vt 0.669724 0.542125
vt 0.669724 0.005936
vt 0.593797 0.548386
vt 0.593222 0.548636
vt 0.332656 0.966963
vt 0.312389 0.968514
vt 0.312389 0.968514
vt 0.312389 0.968514
vt 0.312389 0.968514
vt 0.312389 0.968514
vt 0.312389 0.968514
vt 0.312389 0.968514
vt 0.312389 0.968514
vt 0.312389 0.968514
vt 0.312389 0.968514
vt 0.312389 0.968514
vt 0.312389 0.968514
vt 0.312389 0.968514
vt 0.312389 0.968514
vt 0.312389 0.968514
vt 0.326690 0.962306
vt 0.331291 0.968387
vt 0.324618 0.967551
vt 0.322326 0.966344
vt 0.997647 0.005016
vt 0.798319 0.454942
vn -1.0000 0.0000 0.0000
vn 0.0000 0.0000 -1.0000
vn 0.0000 1.0000 0.0000
vn -0.0000 0.0000 1.0000
vn 0.0000 -1.0000 0.0000
vn -0.8944 0.4472 0.0000
vn 1.0000 0.0000 0.0000
vn -0.0980 -0.9952 0.0000
vn -0.2903 -0.9569 0.0000
vn -0.4714 -0.8819 0.0000
vn -0.6344 -0.7730 0.0000
vn -0.7730 -0.6344 0.0000
vn -0.8819 -0.4714 0.0000
vn -0.9569 -0.2903 0.0000
vn -0.9952 -0.0980 0.0000
vn -0.9952 0.0980 0.0000
vn -0.9569 0.2903 0.0000
vn -0.8819 0.4714 0.0000
vn -0.7730 0.6344 0.0000
vn -0.6344 0.7730 0.0000
vn -0.4714 0.8819 0.0000
vn -0.2903 0.9569 0.0000
vn -0.0980 0.9952 0.0000
vn 0.0980 0.9952 0.0000
vn 0.2903 0.9569 0.0000
vn 0.4714 0.8819 0.0000
vn 0.6344 0.7730 0.0000
vn 0.7730 0.6344 0.0000
vn 0.8819 0.4714 0.0000
vn 0.9569 0.2903 0.0000
vn 0.9952 0.0980 0.0000
vn 0.9952 -0.0980 0.0000
vn 0.9569 -0.2903 0.0000
vn 0.8819 -0.4714 0.0000
vn 0.7730 -0.6344 0.0000
vn 0.6344 -0.7730 0.0000
vn 0.4714 -0.8819 0.0000
vn 0.2903 -0.9569 0.0000
vn 0.0980 -0.9952 0.0000
vn 0.9487 0.3162 0.0000
s off
f 2/1/1 3/2/1 1/3/1
f 4/4/2 11/5/2 10/6/2
f 9/7/3 13/8/3 10/9/3
f 2/10/4 81/11/4 80/12/4
f 53/13/4 54/14/4 1/15/4
f 7/16/5 1/17/5 3/18/5
f 4/19/6 6/20/6 8/21/6
f 10/22/7 12/23/7 9/24/7
f 6/25/3 16/26/3 8/27/3
f 14/28/5 87/29/5 15/30/5
f 13/31/2 86/32/2 14/33/2
f 10/34/2 14/35/2 7/36/2
f 12/37/4 17/38/4 6/39/4
f 5/40/4 18/41/4 9/42/4
f 7/43/5 15/30/5 5/44/5
f 11/45/5 20/46/5 12/47/5
f 8/48/2 19/49/2 11/50/2
f 21/51/8 83/52/8 80/53/8
f 22/54/9 82/55/9 83/52/9
f 24/56/10 82/55/10 23/57/10
f 24/58/11 69/59/11 57/60/11
f 25/61/12 61/62/12 69/59/12
f 26/63/13 66/64/13 61/62/13
f 27/65/14 65/66/14 66/64/14
f 28/67/15 62/68/15 65/66/15
f 29/69/16 64/70/16 62/68/16
f 30/71/17 68/72/17 64/70/17
f 31/73/18 60/74/18 68/72/18
f 32/75/19 67/76/19 60/74/19
f 33/77/20 58/78/20 67/76/20
f 34/79/21 56/80/21 58/78/21
f 35/81/22 59/82/22 56/80/22
f 36/83/23 53/84/23 59/82/23
f 37/85/24 54/86/24 53/84/24
f 38/87/25 55/88/25 54/86/25
f 39/89/26 63/90/26 55/88/26
f 40/91/27 70/92/27 63/93/27
f 41/94/28 71/95/28 70/92/28
f 42/96/29 72/97/29 71/95/29
f 43/98/30 73/99/30 72/97/30
f 44/100/31 74/101/31 73/99/31
f 45/102/32 75/103/32 74/101/32
f 46/104/33 77/105/33 75/103/33
f 47/106/34 76/107/34 77/105/34
f 48/108/35 78/109/35 76/107/35
f 49/110/36 79/111/36 78/109/36
f 50/112/37 84/113/37 79/111/37
f 51/114/38 81/115/38 84/113/38
f 52/116/39 80/53/39 81/115/39
f 33/77/4 25/61/4 49/117/4
f 85/118/2 19/119/2 16/120/2
f 19/121/1 18/122/1 20/123/1
f 87/124/7 85/125/7 88/126/7
f 88/127/40 16/128/40 17/129/40
f 15/130/4 88/131/4 18/132/4
f 20/133/4 88/134/4 17/135/4
f 2/1/1 4/19/1 3/2/1
f 7/136/2 3/137/2 4/4/2
f 4/4/2 8/138/2 11/5/2
f 10/6/2 7/136/2 4/4/2
f 9/7/3 18/139/3 13/8/3
f 82/140/4 57/141/4 9/142/4
f 12/143/4 6/144/4 2/10/4
f 82/140/4 9/142/4 83/145/4
f 9/142/4 12/143/4 2/10/4
f 83/145/4 9/142/4 80/12/4
f 80/12/4 9/142/4 2/10/4
f 2/10/4 79/146/4 84/147/4
f 2/10/4 84/147/4 81/11/4
f 78/148/4 79/146/4 2/10/4
f 9/142/4 57/141/4 69/149/4
f 9/142/4 69/149/4 61/150/4
f 76/151/4 78/148/4 2/10/4
f 77/152/4 76/151/4 2/10/4
f 9/142/4 61/150/4 66/153/4
f 9/142/4 66/153/4 65/154/4
f 77/152/4 2/10/4 75/155/4
f 2/10/4 1/15/4 74/156/4
f 75/155/4 2/10/4 74/156/4
f 5/157/4 9/142/4 62/158/4
f 9/142/4 65/154/4 62/158/4
f 73/159/4 74/156/4 1/15/4
f 5/157/4 62/158/4 64/160/4
f 5/157/4 64/160/4 68/161/4
f 72/162/4 73/159/4 1/15/4
f 71/163/4 72/162/4 1/15/4
f 5/157/4 68/161/4 60/164/4
f 5/157/4 60/164/4 67/165/4
f 70/166/4 71/163/4 1/15/4
f 63/167/4 70/166/4 1/15/4
f 1/15/4 5/157/4 53/13/4
f 5/157/4 67/165/4 58/168/4
f 5/157/4 58/168/4 56/169/4
f 55/170/4 63/167/4 1/15/4
f 54/14/4 55/170/4 1/15/4
f 5/157/4 56/169/4 59/171/4
f 5/157/4 59/171/4 53/13/4
f 7/16/5 5/172/5 1/17/5
f 4/19/6 2/1/6 6/20/6
f 10/22/7 11/173/7 12/23/7
f 6/25/3 17/174/3 16/26/3
f 14/28/5 86/175/5 87/29/5
f 13/31/2 85/176/2 86/32/2
f 10/34/2 13/177/2 14/35/2
f 12/37/4 20/178/4 17/38/4
f 5/40/4 15/179/4 18/41/4
f 7/43/5 14/28/5 15/30/5
f 11/45/5 19/180/5 20/46/5
f 8/48/2 16/181/2 19/49/2
f 21/51/8 22/54/8 83/52/8
f 22/54/9 23/57/9 82/55/9
f 24/56/10 57/182/10 82/55/10
f 24/58/11 25/61/11 69/59/11
f 25/61/12 26/63/12 61/62/12
f 26/63/13 27/65/13 66/64/13
f 27/65/14 28/67/14 65/66/14
f 28/67/15 29/69/15 62/68/15
f 29/69/16 30/71/16 64/70/16
f 30/71/17 31/73/17 68/72/17
f 31/73/18 32/75/18 60/74/18
f 32/75/19 33/77/19 67/76/19
f 33/77/20 34/79/20 58/78/20
f 34/79/21 35/81/21 56/80/21
f 35/81/22 36/83/22 59/82/22
f 36/83/23 37/85/23 53/84/23
f 37/85/24 38/87/24 54/86/24
f 38/87/25 39/89/25 55/88/25
f 39/89/26 40/183/26 63/90/26
f 40/91/27 41/94/27 70/92/27
f 41/94/28 42/96/28 71/95/28
f 42/96/29 43/98/29 72/97/29
f 43/98/30 44/100/30 73/99/30
f 44/100/31 45/102/31 74/101/31
f 45/102/32 46/104/32 75/103/32
f 46/104/33 47/106/33 77/105/33
f 47/106/34 48/108/34 76/107/34
f 48/108/35 49/110/35 78/109/35
f 49/110/36 50/112/36 79/111/36
f 50/112/37 51/114/37 84/113/37
f 51/114/38 52/116/38 81/115/38
f 52/116/39 21/51/39 80/53/39
f 49/117/4 48/184/4 47/185/4
f 47/185/4 46/186/4 49/117/4
f 46/186/4 45/187/4 49/117/4
f 45/187/4 44/188/4 41/189/4
f 44/188/4 43/190/4 41/189/4
f 43/190/4 42/191/4 41/189/4
f 41/189/4 40/183/4 39/89/4
f 39/89/4 38/87/4 41/189/4
f 38/87/4 37/85/4 41/189/4
f 37/85/4 36/83/4 33/77/4
f 36/83/4 35/81/4 33/77/4
f 35/81/4 34/79/4 33/77/4
f 33/77/4 32/75/4 31/73/4
f 31/73/4 30/71/4 33/77/4
f 30/71/4 29/69/4 33/77/4
f 29/69/4 28/67/4 25/61/4
f 28/67/4 27/65/4 25/61/4
f 27/65/4 26/63/4 25/61/4
f 25/61/4 24/58/4 23/192/4
f 23/192/4 22/193/4 25/61/4
f 22/193/4 21/194/4 25/61/4
f 21/194/4 52/195/4 49/117/4
f 52/195/4 51/196/4 49/117/4
f 51/196/4 50/197/4 49/117/4
f 49/117/4 45/187/4 41/189/4
f 41/189/4 37/85/4 33/77/4
f 33/77/4 29/69/4 25/61/4
f 25/61/4 21/194/4 49/117/4
f 49/117/4 41/189/4 33/77/4
f 85/118/2 13/198/2 19/119/2
f 19/121/1 13/199/1 18/122/1
f 87/124/7 86/200/7 85/125/7
f 88/127/40 85/201/40 16/128/40
f 15/130/4 87/202/4 88/131/4
f 20/133/4 18/203/4 88/134/4
