# Blender v2.93.4 OBJ File: 'instruccion.blend'
# www.blender.org
o Instruction_Cube
v -0.101159 0.253275 0.100327
v -0.101159 -0.256725 0.100327
v -0.101159 0.253275 -0.099673
v -0.101159 -0.256725 -0.099673
v 0.098841 0.253275 0.100327
v 0.098841 -0.256725 0.100327
v 0.098841 0.253275 -0.099673
v 0.098841 -0.256725 -0.099673
v -0.001159 0.053275 -0.004673
v -0.011889 0.052218 -0.004673
v -0.022207 0.049088 -0.004673
v -0.031716 0.044006 -0.004673
v -0.040050 0.037166 -0.004673
v -0.046890 0.028831 -0.004673
v -0.051973 0.019323 -0.004673
v -0.055103 0.009005 -0.004673
v -0.056159 -0.001725 -0.004673
v -0.055103 -0.012455 -0.004673
v -0.051973 -0.022773 -0.004673
v -0.046890 -0.032281 -0.004673
v -0.040050 -0.040616 -0.004673
v -0.031716 -0.047456 -0.004673
v -0.022207 -0.052538 -0.004673
v -0.011889 -0.055668 -0.004673
v -0.001159 -0.056725 -0.004673
v 0.009571 -0.055668 -0.004673
v 0.019888 -0.052538 -0.004673
v 0.029397 -0.047456 -0.004673
v 0.037732 -0.040616 -0.004673
v 0.044571 -0.032281 -0.004673
v 0.049654 -0.022773 -0.004673
v 0.052784 -0.012455 -0.004673
v 0.053841 -0.001725 -0.004673
v 0.052784 0.009005 -0.004673
v 0.049654 0.019323 -0.004673
v 0.044571 0.028831 -0.004673
v 0.037732 0.037166 -0.004673
v 0.029397 0.044006 -0.004673
v 0.019888 0.049088 -0.004673
v 0.009571 0.052218 -0.004673
v -0.001159 -0.056725 0.100327
v 0.009571 -0.055668 0.100327
v 0.019888 -0.052538 0.100327
v 0.053841 -0.001725 0.100327
v 0.052784 -0.012455 0.100327
v 0.052784 0.009005 0.100327
v 0.044571 -0.032281 0.100327
v 0.044571 0.028831 0.100327
v 0.049654 -0.022773 0.100327
v 0.049654 0.019323 0.100327
v 0.029397 -0.047456 0.100327
v 0.037732 0.037166 0.100327
v 0.029397 0.044006 0.100327
v 0.009571 0.052218 0.100327
v -0.011889 0.052218 0.100327
v -0.001159 0.053275 0.100327
v 0.019888 0.049088 0.100327
v 0.037732 -0.040616 0.100327
v -0.031716 -0.047456 0.100327
v -0.022207 -0.052538 0.100327
v -0.031716 0.044006 0.100327
v -0.011889 -0.055668 0.100327
v -0.022207 0.049088 0.100327
v -0.046890 -0.032281 0.100327
v -0.046890 0.028831 0.100327
v -0.056159 -0.001725 0.100327
v -0.051973 -0.022773 0.100327
v -0.055103 -0.012455 0.100327
v -0.055103 0.009005 0.100327
v -0.040050 -0.040616 0.100327
v -0.051973 0.019323 0.100327
v -0.040050 0.037166 0.100327
v 0.053841 0.098275 -0.004673
v 0.053841 0.208275 -0.004673
v -0.056159 0.098275 -0.004673
v -0.056159 0.208275 -0.004673
v 0.053841 0.136896 0.100327
v 0.038907 0.098275 0.100327
v -0.056159 0.098275 0.100327
v 0.053841 0.208275 0.100327
v -0.056159 0.208275 0.100327
v 0.053841 0.098275 0.100327
vt 0.000000 0.878811
vt 0.242197 0.631258
vt 0.242197 0.878811
vt 0.247552 0.631258
vt 0.000000 0.000000
vt 0.247552 0.000000
vt 0.742657 0.617602
vt 0.495105 0.000000
vt 0.742657 0.000000
vt 0.742062 0.617602
vt 0.495105 0.865154
vt 0.495105 0.617602
vt 0.990209 0.593329
vt 0.742657 0.000000
vt 0.990209 0.000000
vt 0.323191 0.363767
vt 0.333507 0.372233
vt 0.303252 0.439405
vt 0.439406 0.315629
vt 0.438097 0.302348
vt 0.662005 0.995119
vt 0.675345 0.865154
vt 0.675345 0.995119
vt 0.688354 0.865154
vt 0.688354 0.995119
vt 0.700531 0.865154
vt 0.700531 0.995119
vt 0.711409 0.865154
vt 0.711409 0.995119
vt 0.877560 0.747567
vt 0.889405 0.617602
vt 0.889405 0.747567
vt 0.902221 0.617602
vt 0.902221 0.747567
vt 0.915517 0.617602
vt 0.915517 0.747567
vt 0.928781 0.617602
vt 0.928781 0.747567
vt 0.941505 0.617602
vt 0.941505 0.747567
vt 0.953198 0.617602
vt 0.953198 0.747567
vt 0.963411 0.617602
vt 0.963411 0.747567
vt 0.971753 0.617602
vt 0.971753 0.747567
vt 0.474619 0.631258
vt 0.482960 0.761223
vt 0.474619 0.761223
vt 0.464405 0.631258
vt 0.464405 0.761223
vt 0.452712 0.631258
vt 0.452712 0.761223
vt 0.439989 0.631258
vt 0.439989 0.761223
vt 0.426725 0.631258
vt 0.426725 0.761223
vt 0.413429 0.631258
vt 0.413429 0.761223
vt 0.400612 0.631258
vt 0.400612 0.761223
vt 0.388768 0.631258
vt 0.388768 0.761223
vt 0.378351 0.761223
vt 0.378351 0.631258
vt 0.473515 0.761223
vt 0.464600 0.891188
vt 0.464600 0.761223
vt 0.453920 0.891188
vt 0.453920 0.761223
vt 0.441883 0.891188
vt 0.441883 0.761223
vt 0.428953 0.891188
vt 0.428953 0.761223
vt 0.415627 0.891188
vt 0.415627 0.761223
vt 0.402417 0.891188
vt 0.402417 0.761223
vt 0.389830 0.891188
vt 0.389830 0.761223
vt 0.378351 0.891188
vt 0.378351 0.761223
vt 0.625070 0.995119
vt 0.636375 0.865154
vt 0.636375 0.995119
vt 0.744666 0.705113
vt 0.790049 0.620206
vt 0.874957 0.665589
vt 0.648847 0.865154
vt 0.648847 0.995119
vt 0.662005 0.865154
vt 1.000000 0.753100
vt 1.000000 0.883065
vt 0.955069 0.883065
vt 0.625070 0.865154
vt 0.495105 0.998363
vt 0.495105 0.865154
vt 0.378351 0.767412
vt 0.242197 0.631258
vt 0.378351 0.631258
vt 0.242197 0.767412
vt 0.372162 0.767412
vt 0.372162 0.882536
vt 0.872027 0.888927
vt 0.742062 0.753100
vt 0.872027 0.753100
vt 0.000000 0.631258
vt 0.495105 0.617602
vt 0.742062 0.865154
vt 0.742657 0.593329
vt 0.247552 0.000000
vt 0.345277 0.252734
vt 0.333507 0.259025
vt 0.323191 0.267492
vt 0.439405 0.575559
vt 0.439405 0.487209
vt 0.495105 0.631258
vt 0.303252 0.575559
vt 0.314725 0.277808
vt 0.308434 0.289577
vt 0.247552 0.631258
vt 0.397380 0.378524
vt 0.420921 0.439405
vt 0.384610 0.382398
vt 0.371329 0.383706
vt 0.304560 0.302348
vt 0.303252 0.315629
vt 0.304560 0.328910
vt 0.358047 0.382398
vt 0.345277 0.378524
vt 0.308434 0.341681
vt 0.314725 0.353451
vt 0.358047 0.248860
vt 0.439406 0.439405
vt 0.409150 0.372233
vt 0.371329 0.247552
vt 0.419466 0.363767
vt 0.384610 0.248860
vt 0.397380 0.252734
vt 0.427932 0.353451
vt 0.434223 0.341681
vt 0.409150 0.259025
vt 0.419466 0.267492
vt 0.438097 0.328910
vt 0.427932 0.277808
vt 0.434223 0.289577
vt 0.877560 0.617602
vt 0.482960 0.631258
vt 0.473515 0.891188
vt 0.625070 0.865154
vt 0.742062 0.692024
vt 0.749773 0.653260
vt 0.742062 0.678678
vt 0.744666 0.665589
vt 0.757187 0.642164
vt 0.766624 0.632727
vt 0.777720 0.625313
vt 0.803138 0.617602
vt 0.841902 0.625313
vt 0.816484 0.617602
vt 0.829573 0.620206
vt 0.852999 0.632727
vt 0.862435 0.642164
vt 0.869850 0.653260
vt 0.877560 0.678678
vt 0.869850 0.717442
vt 0.877560 0.692024
vt 0.874957 0.705113
vt 0.862435 0.728539
vt 0.852999 0.737975
vt 0.841902 0.745390
vt 0.829573 0.750497
vt 0.816484 0.753100
vt 0.777720 0.745390
vt 0.803138 0.753100
vt 0.790049 0.750497
vt 0.766624 0.737975
vt 0.757187 0.728539
vt 0.749773 0.717442
vt 0.872027 0.883065
vt 0.872027 0.753100
vt 0.625070 0.998363
vt 0.242197 0.767412
vt 0.372162 0.900620
vt 0.242197 0.900620
vt 0.742062 0.888927
vn 0.0000 1.0000 0.0000
vn 0.0000 0.0000 -1.0000
vn 1.0000 0.0000 0.0000
vn 0.0000 -1.0000 -0.0000
vn -1.0000 0.0000 -0.0000
vn 0.0000 0.0000 1.0000
vn 0.0980 -0.9952 -0.0000
vn 0.2903 -0.9569 0.0000
vn 0.4714 -0.8819 0.0000
vn 0.6344 -0.7730 0.0000
vn 0.7730 -0.6344 0.0000
vn 0.8819 -0.4714 0.0000
vn 0.9569 -0.2903 0.0000
vn 0.9952 -0.0980 0.0000
vn 0.9952 0.0980 0.0000
vn 0.9569 0.2903 0.0000
vn 0.8819 0.4714 0.0000
vn 0.7730 0.6344 0.0000
vn 0.6344 0.7730 0.0000
vn 0.4714 0.8819 0.0000
vn 0.2903 0.9569 0.0000
vn 0.0980 0.9952 0.0000
vn -0.0980 0.9952 0.0000
vn -0.2903 0.9569 0.0000
vn -0.4714 0.8819 -0.0000
vn -0.6344 0.7730 -0.0000
vn -0.7730 0.6344 -0.0000
vn -0.8819 0.4714 -0.0000
vn -0.9569 0.2903 -0.0000
vn -0.9952 0.0980 -0.0000
vn -0.9952 -0.0980 -0.0000
vn -0.9569 -0.2903 -0.0000
vn -0.8819 -0.4714 -0.0000
vn -0.7730 -0.6344 -0.0000
vn -0.6344 -0.7730 -0.0000
vn -0.4714 -0.8819 -0.0000
vn -0.2903 -0.9569 -0.0000
vn -0.0980 -0.9952 -0.0000
s off
f 5/1/1 3/2/1 1/3/1
f 3/4/2 8/5/2 4/6/2
f 7/7/3 6/8/3 8/9/3
f 2/10/4 8/11/4 6/12/4
f 1/13/5 4/14/5 2/15/5
f 72/16/6 61/17/6 79/18/6
f 44/19/6 45/20/6 6/8/6
f 9/21/7 55/22/7 10/23/7
f 10/23/8 63/24/8 11/25/8
f 11/25/9 61/26/9 12/27/9
f 12/27/10 72/28/10 13/29/10
f 13/30/11 65/31/11 14/32/11
f 14/32/12 71/33/12 15/34/12
f 15/34/13 69/35/13 16/36/13
f 16/36/14 66/37/14 17/38/14
f 17/38/15 68/39/15 18/40/15
f 18/40/16 67/41/16 19/42/16
f 19/42/17 64/43/17 20/44/17
f 20/44/18 70/45/18 21/46/18
f 22/47/19 70/48/19 59/49/19
f 23/50/20 59/49/20 60/51/20
f 24/52/21 60/51/21 62/53/21
f 25/54/22 62/53/22 41/55/22
f 26/56/23 41/55/23 42/57/23
f 27/58/24 42/57/24 43/59/24
f 28/60/25 43/59/25 51/61/25
f 29/62/26 51/61/26 58/63/26
f 29/62/27 47/64/27 30/65/27
f 30/66/28 49/67/28 31/68/28
f 31/68/29 45/69/29 32/70/29
f 32/70/30 44/71/30 33/72/30
f 33/72/31 46/73/31 34/74/31
f 34/74/32 50/75/32 35/76/32
f 35/76/33 48/77/33 36/78/33
f 36/78/34 52/79/34 37/80/34
f 37/80/35 53/81/35 38/82/35
f 38/83/36 57/84/36 39/85/36
f 9/86/6 17/87/6 25/88/6
f 39/85/37 54/89/37 40/90/37
f 40/90/38 56/91/38 9/21/38
f 73/92/5 82/93/5 77/94/5
f 75/95/3 81/96/3 79/97/3
f 73/98/6 76/99/6 75/100/6
f 75/101/1 79/102/1 78/103/1
f 74/104/4 81/105/4 76/106/4
f 5/1/1 7/107/1 3/2/1
f 3/4/2 7/107/2 8/5/2
f 7/7/3 5/108/3 6/8/3
f 2/10/4 4/109/4 8/11/4
f 1/13/5 3/110/5 4/14/5
f 2/111/6 60/112/6 59/113/6
f 2/111/6 59/113/6 70/114/6
f 80/115/6 77/116/6 5/117/6
f 81/118/6 80/115/6 5/117/6
f 2/111/6 70/114/6 64/119/6
f 2/111/6 64/119/6 67/120/6
f 81/118/6 5/117/6 1/121/6
f 57/122/6 78/123/6 54/124/6
f 78/123/6 79/18/6 56/125/6
f 54/124/6 78/123/6 56/125/6
f 79/18/6 81/118/6 1/121/6
f 2/111/6 67/120/6 68/126/6
f 2/111/6 68/126/6 66/127/6
f 79/18/6 1/121/6 66/127/6
f 1/121/6 2/111/6 66/127/6
f 79/18/6 66/127/6 69/128/6
f 55/129/6 56/125/6 79/18/6
f 63/130/6 55/129/6 79/18/6
f 79/18/6 69/128/6 71/131/6
f 79/18/6 71/131/6 65/132/6
f 61/17/6 63/130/6 79/18/6
f 79/18/6 65/132/6 72/16/6
f 62/133/6 60/112/6 2/111/6
f 6/8/6 5/117/6 44/19/6
f 5/117/6 77/116/6 82/134/6
f 82/134/6 78/123/6 53/135/6
f 78/123/6 57/122/6 53/135/6
f 5/117/6 82/134/6 44/19/6
f 62/133/6 2/111/6 41/136/6
f 2/111/6 6/8/6 41/136/6
f 82/134/6 53/135/6 52/137/6
f 42/138/6 41/136/6 6/8/6
f 43/139/6 42/138/6 6/8/6
f 82/134/6 52/137/6 48/140/6
f 82/134/6 48/140/6 50/141/6
f 51/142/6 43/139/6 6/8/6
f 58/143/6 51/142/6 6/8/6
f 82/134/6 50/141/6 46/144/6
f 82/134/6 46/144/6 44/19/6
f 47/145/6 58/143/6 6/8/6
f 49/146/6 47/145/6 6/8/6
f 45/20/6 49/146/6 6/8/6
f 9/21/7 56/91/7 55/22/7
f 10/23/8 55/22/8 63/24/8
f 11/25/9 63/24/9 61/26/9
f 12/27/10 61/26/10 72/28/10
f 13/30/11 72/147/11 65/31/11
f 14/32/12 65/31/12 71/33/12
f 15/34/13 71/33/13 69/35/13
f 16/36/14 69/35/14 66/37/14
f 17/38/15 66/37/15 68/39/15
f 18/40/16 68/39/16 67/41/16
f 19/42/17 67/41/17 64/43/17
f 20/44/18 64/43/18 70/45/18
f 22/47/19 21/148/19 70/48/19
f 23/50/20 22/47/20 59/49/20
f 24/52/21 23/50/21 60/51/21
f 25/54/22 24/52/22 62/53/22
f 26/56/23 25/54/23 41/55/23
f 27/58/24 26/56/24 42/57/24
f 28/60/25 27/58/25 43/59/25
f 29/62/26 28/60/26 51/61/26
f 29/62/27 58/63/27 47/64/27
f 30/66/28 47/149/28 49/67/28
f 31/68/29 49/67/29 45/69/29
f 32/70/30 45/69/30 44/71/30
f 33/72/31 44/71/31 46/73/31
f 34/74/32 46/73/32 50/75/32
f 35/76/33 50/75/33 48/77/33
f 36/78/34 48/77/34 52/79/34
f 37/80/35 52/79/35 53/81/35
f 38/83/36 53/150/36 57/84/36
f 9/86/6 10/151/6 13/152/6
f 10/151/6 11/153/6 13/152/6
f 11/153/6 12/154/6 13/152/6
f 13/152/6 14/155/6 15/156/6
f 15/156/6 16/157/6 13/152/6
f 16/157/6 17/87/6 13/152/6
f 17/87/6 18/158/6 21/159/6
f 18/158/6 19/160/6 21/159/6
f 19/160/6 20/161/6 21/159/6
f 21/159/6 22/162/6 23/163/6
f 23/163/6 24/164/6 25/88/6
f 25/88/6 26/165/6 29/166/6
f 26/165/6 27/167/6 29/166/6
f 27/167/6 28/168/6 29/166/6
f 29/166/6 30/169/6 31/170/6
f 31/170/6 32/171/6 29/166/6
f 32/171/6 33/172/6 29/166/6
f 33/172/6 34/173/6 37/174/6
f 34/173/6 35/175/6 37/174/6
f 35/175/6 36/176/6 37/174/6
f 37/174/6 38/177/6 39/178/6
f 39/178/6 40/179/6 37/174/6
f 40/179/6 9/86/6 37/174/6
f 21/159/6 23/163/6 17/87/6
f 23/163/6 25/88/6 17/87/6
f 9/86/6 13/152/6 17/87/6
f 25/88/6 29/166/6 33/172/6
f 33/172/6 37/174/6 25/88/6
f 37/174/6 9/86/6 25/88/6
f 39/85/37 57/84/37 54/89/37
f 40/90/38 54/89/38 56/91/38
f 77/94/5 80/180/5 74/181/5
f 74/181/5 73/92/5 77/94/5
f 75/95/3 76/182/3 81/96/3
f 73/98/6 74/183/6 76/99/6
f 78/103/1 82/184/1 73/185/1
f 73/185/1 75/101/1 78/103/1
f 74/104/4 80/186/4 81/105/4
