{
    "asset" : {
        "generator" : "Khronos glTF Blender I/O v1.6.16",
        "version" : "2.0"
    },
    "scene" : 0,
    "scenes" : [
        {
            "name" : "Scene",
            "nodes" : [
                7
            ]
        }
    ],
    "nodes" : [
        {
            "mesh" : 0,
            "name" : "Box001_Material #4_0",
            "scale" : [
                0.0020000000949949026,
                0.0020000000949949026,
                0.0020000000949949026
            ],
            "translation" : [
                0.010971220210194588,
                0,
                0
            ]
        },
        {
            "children" : [
                0
            ],
            "name" : "Box001",
            "rotation" : [
                0,
                -0.7071066498756409,
                0,
                0.70710688829422
            ],
            "translation" : [
                0,
                61.295860290527344,
                -0.010971218347549438
            ]
        },
        {
            "mesh" : 1,
            "name" : "Object002_Material #5_0",
            "rotation" : [
                0,
                -1,
                0,
                4.3711402497592644e-08
            ],
            "scale" : [
                0.0020000000949949026,
                0.0020000000949949026,
                0.0020000000949949026
            ],
            "translation" : [
                -0.010971220210194588,
                0,
                0
            ]
        },
        {
            "children" : [
                2
            ],
            "name" : "Object002",
            "rotation" : [
                0,
                -0.7071066498756409,
                0,
                0.70710688829422
            ],
            "translation" : [
                0,
                61.295860290527344,
                0
            ]
        },
        {
            "children" : [
                1,
                3
            ],
            "name" : "RootNode"
        },
        {
            "children" : [
                4
            ],
            "name" : "drone.FBX",
            "rotation" : [
                0.7071068286895752,
                0,
                0,
                0.7071068286895752
            ]
        },
        {
            "children" : [
                5
            ],
            "name" : "RootNode (model correction matrix)"
        },
        {
            "children" : [
                6
            ],
            "name" : "RootNode (gltf orientation matrix)",
            "rotation" : [
                -0.7071068286895752,
                0,
                0,
                0.7071068286895752
            ],
            "translation" : [
                0,
                -61.25,
                0
            ]
        }
    ],
    "materials" : [
        {
            "doubleSided" : true,
            "emissiveFactor" : [
                1,
                1,
                1
            ],
            "emissiveTexture" : {
                "index" : 0
            },
            "name" : "Material_4",
            "normalTexture" : {
                "index" : 1
            },
            "occlusionTexture" : {
                "index" : 2
            },
            "pbrMetallicRoughness" : {
                "baseColorTexture" : {
                    "index" : 3
                },
                "metallicRoughnessTexture" : {
                    "index" : 2
                }
            }
        },
        {
            "alphaMode" : "BLEND",
            "doubleSided" : true,
            "emissiveFactor" : [
                1,
                1,
                1
            ],
            "emissiveTexture" : {
                "index" : 4
            },
            "name" : "Material_5",
            "pbrMetallicRoughness" : {
                "baseColorFactor" : [
                    1,
                    1,
                    1,
                    0.5600000023841858
                ],
                "baseColorTexture" : {
                    "index" : 5
                },
                "metallicFactor" : 0,
                "roughnessFactor" : 0.6000000238418579
            }
        }
    ],
    "meshes" : [
        {
            "name" : "Box001_Material #4_0",
            "primitives" : [
                {
                    "attributes" : {
                        "POSITION" : 0,
                        "NORMAL" : 1,
                        "TEXCOORD_0" : 2
                    },
                    "indices" : 3,
                    "material" : 0
                }
            ]
        },
        {
            "name" : "Object002_Material #5_0",
            "primitives" : [
                {
                    "attributes" : {
                        "POSITION" : 4,
                        "NORMAL" : 5,
                        "TEXCOORD_0" : 6
                    },
                    "indices" : 7,
                    "material" : 1
                }
            ]
        }
    ],
    "textures" : [
        {
            "sampler" : 0,
            "source" : 0
        },
        {
            "sampler" : 0,
            "source" : 1
        },
        {
            "sampler" : 0,
            "source" : 2
        },
        {
            "sampler" : 0,
            "source" : 3
        },
        {
            "sampler" : 0,
            "source" : 4
        },
        {
            "sampler" : 0,
            "source" : 5
        }
    ],
    "images" : [
        {
            "bufferView" : 4,
            "mimeType" : "image/png",
            "name" : "Material_4_emissive"
        },
        {
            "bufferView" : 5,
            "mimeType" : "image/png",
            "name" : "Material_4_normal"
        },
        {
            "bufferView" : 6,
            "mimeType" : "image/png",
            "name" : "Material_4_metallicRoughness"
        },
        {
            "bufferView" : 7,
            "mimeType" : "image/png",
            "name" : "Material_4_baseColor"
        },
        {
            "bufferView" : 12,
            "mimeType" : "image/png",
            "name" : "Material_5_emissive"
        },
        {
            "bufferView" : 13,
            "mimeType" : "image/png",
            "name" : "Material_5_baseColor"
        }
    ],
    "accessors" : [
        {
            "bufferView" : 0,
            "componentType" : 5126,
            "count" : 2421,
            "max" : [
                80.5277328491211,
                34.39588928222656,
                49.13294982910156
            ],
            "min" : [
                -136.0105743408203,
                -83.102783203125,
                -49.13318634033203
            ],
            "type" : "VEC3"
        },
        {
            "bufferView" : 1,
            "componentType" : 5126,
            "count" : 2421,
            "type" : "VEC3"
        },
        {
            "bufferView" : 2,
            "componentType" : 5126,
            "count" : 2421,
            "type" : "VEC2"
        },
        {
            "bufferView" : 3,
            "componentType" : 5123,
            "count" : 5382,
            "type" : "SCALAR"
        },
        {
            "bufferView" : 8,
            "componentType" : 5126,
            "count" : 238,
            "max" : [
                -42.59651565551758,
                -74.60238647460938,
                44.40433120727539
            ],
            "min" : [
                -79.56471252441406,
                -112.33809661865234,
                -44.404510498046875
            ],
            "type" : "VEC3"
        },
        {
            "bufferView" : 9,
            "componentType" : 5126,
            "count" : 238,
            "type" : "VEC3"
        },
        {
            "bufferView" : 10,
            "componentType" : 5126,
            "count" : 238,
            "type" : "VEC2"
        },
        {
            "bufferView" : 11,
            "componentType" : 5123,
            "count" : 576,
            "type" : "SCALAR"
        }
    ],
    "bufferViews" : [
        {
            "buffer" : 0,
            "byteLength" : 29052,
            "byteOffset" : 0
        },
        {
            "buffer" : 0,
            "byteLength" : 29052,
            "byteOffset" : 29052
        },
        {
            "buffer" : 0,
            "byteLength" : 19368,
            "byteOffset" : 58104
        },
        {
            "buffer" : 0,
            "byteLength" : 10764,
            "byteOffset" : 77472
        },
        {
            "buffer" : 0,
            "byteLength" : 29321,
            "byteOffset" : 88236
        },
        {
            "buffer" : 0,
            "byteLength" : 371930,
            "byteOffset" : 117560
        },
        {
            "buffer" : 0,
            "byteLength" : 895016,
            "byteOffset" : 489492
        },
        {
            "buffer" : 0,
            "byteLength" : 568463,
            "byteOffset" : 1384508
        },
        {
            "buffer" : 0,
            "byteLength" : 2856,
            "byteOffset" : 1952972
        },
        {
            "buffer" : 0,
            "byteLength" : 2856,
            "byteOffset" : 1955828
        },
        {
            "buffer" : 0,
            "byteLength" : 1904,
            "byteOffset" : 1958684
        },
        {
            "buffer" : 0,
            "byteLength" : 1152,
            "byteOffset" : 1960588
        },
        {
            "buffer" : 0,
            "byteLength" : 29321,
            "byteOffset" : 1961740
        },
        {
            "buffer" : 0,
            "byteLength" : 675523,
            "byteOffset" : 1991064
        }
    ],
    "samplers" : [
        {
            "magFilter" : 9729,
            "minFilter" : 9987
        }
    ],
    "buffers" : [
        {
            "byteLength" : 2666588,
            "uri" : "data:application/octet-stream;base64,"
        }
    ]
}
