# Blender v2.93.4 OBJ File: 'instrucctions.blend'
# www.blender.org
o loop_union_Cube.014
v -0.000000 -0.100000 0.100000
v -0.000000 0.100000 0.100000
v -0.000000 -0.100000 -0.100000
v -0.000000 0.100000 -0.100000
v 0.100000 -0.100000 0.100000
v 0.100000 0.100000 0.100000
v 0.100000 -0.100000 -0.100000
v 0.100000 0.100000 -0.100000
vt 0.312194 0.268352
vt 0.312194 0.268352
vt 0.312194 0.268352
vt 0.312194 0.268352
vt 0.312194 0.268352
vt 0.312194 0.268352
vt 0.312194 0.268352
vt 0.312194 0.268352
vt 0.564665 0.005635
vt 0.564665 0.303369
vt 0.288303 0.302822
vt 0.288303 0.005693
vn -1.0000 0.0000 0.0000
vn 0.0000 0.0000 -1.0000
vn 1.0000 0.0000 0.0000
vn 0.0000 0.0000 1.0000
vn 0.0000 -1.0000 0.0000
vn 0.0000 1.0000 0.0000
s off
f 1/1/1 2/2/1 4/3/1 3/4/1
f 3/4/2 4/3/2 8/5/2 7/6/2
f 7/6/3 8/5/3 6/7/3 5/8/3
f 5/9/4 6/10/4 2/11/4 1/12/4
f 3/4/5 7/6/5 5/8/5 1/1/5
f 8/5/6 4/3/6 2/2/6 6/7/6
