# Blender v2.93.4 OBJ File: 'instrucctions.blend'
# www.blender.org
o loop_open_Cube.009
v -0.150000 -0.349999 0.100000
v -0.150000 -0.349999 -0.100000
v 0.050000 -0.349999 0.100000
v 0.050000 0.349999 0.100000
v 0.050000 -0.349999 -0.100000
v 0.050000 0.349999 -0.100000
v 0.050000 -0.150000 -0.100000
v 0.050000 -0.150000 0.100000
v 0.150000 0.349999 -0.100000
v 0.150000 0.349999 0.100000
v 0.150000 -0.150000 -0.100000
v 0.150000 -0.150000 0.100000
v -0.050000 -0.045000 0.025000
v -0.039270 -0.046057 0.025000
v -0.028952 -0.049187 0.025000
v -0.019444 -0.054269 0.025000
v -0.011109 -0.061109 0.025000
v -0.004269 -0.069444 0.025000
v 0.000813 -0.078952 0.025000
v 0.003943 -0.089270 0.025000
v 0.005000 -0.100000 0.025000
v 0.003943 -0.110730 0.025000
v 0.000813 -0.121048 0.025000
v -0.004269 -0.130556 0.025000
v -0.011109 -0.138891 0.025000
v -0.019444 -0.145731 0.025000
v -0.028952 -0.150813 0.025000
v -0.039270 -0.153943 0.025000
v -0.050000 -0.155000 0.025000
v -0.060730 -0.153943 0.025000
v -0.071048 -0.150813 0.025000
v -0.080556 -0.145731 0.025000
v -0.088891 -0.138891 0.025000
v -0.095731 -0.130556 0.025000
v -0.100813 -0.121048 0.025000
v -0.103943 -0.110730 0.025000
v -0.105000 -0.100000 0.025000
v -0.103943 -0.089270 0.025000
v -0.100813 -0.078952 0.025000
v -0.095731 -0.069444 0.025000
v -0.088891 -0.061109 0.025000
v -0.080556 -0.054269 0.025000
v -0.071048 -0.049187 0.025000
v -0.060730 -0.046057 0.025000
v -0.039270 -0.153943 0.100000
v -0.050000 -0.155000 0.100000
v -0.060730 -0.153943 0.100000
v -0.071048 -0.150813 0.100000
v -0.080556 -0.145731 0.100000
v -0.105000 -0.100000 0.100000
v -0.103943 -0.110730 0.100000
v -0.088891 -0.138891 0.100000
v -0.103943 -0.089270 0.100000
v -0.095731 -0.130556 0.100000
v -0.100813 -0.078952 0.100000
v -0.100813 -0.121048 0.100000
v -0.095731 -0.069444 0.100000
v -0.088891 -0.061109 0.100000
v -0.060730 -0.046057 0.100000
v -0.071048 -0.049187 0.100000
v -0.080556 -0.054269 0.100000
v -0.039270 -0.046057 0.100000
v -0.019444 -0.145731 0.100000
v -0.019444 -0.054269 0.100000
v -0.028952 -0.150813 0.100000
v -0.028952 -0.049187 0.100000
v -0.004269 -0.130556 0.100000
v -0.004269 -0.069444 0.100000
v 0.005000 -0.100000 0.100000
v 0.003943 -0.089270 0.100000
v 0.000813 -0.121048 0.100000
v 0.003943 -0.110730 0.100000
v 0.000813 -0.078952 0.100000
v -0.011109 -0.138891 0.100000
v -0.011109 -0.061109 0.100000
v -0.050000 -0.045000 0.100000
v -0.071048 -0.150813 0.100000
v -0.080556 -0.145731 0.100000
v -0.105000 -0.100000 0.100000
v -0.103943 -0.110730 0.100000
v -0.088891 -0.138891 0.100000
v -0.103943 -0.089270 0.100000
v -0.095731 -0.130556 0.100000
v -0.100813 -0.078952 0.100000
v -0.100813 -0.121048 0.100000
v -0.095731 -0.069444 0.100000
v -0.088891 -0.061109 0.100000
v -0.060730 -0.046057 0.100000
v -0.071048 -0.049187 0.100000
v -0.080556 -0.054269 0.100000
v -0.039270 -0.046057 0.100000
v -0.028952 -0.049187 0.100000
v 0.005000 -0.100000 0.100000
v 0.003943 -0.089270 0.100000
v 0.050000 -0.150000 0.100000
v 0.000813 -0.121048 0.100000
v 0.003943 -0.110730 0.100000
v -0.004269 -0.069444 0.100000
v 0.000813 -0.078952 0.100000
v -0.019444 -0.054269 0.100000
v -0.011109 -0.061109 0.100000
v -0.050000 -0.045000 0.100000
v 0.006126 0.349999 0.100000
v -0.073818 0.319363 0.100000
v -0.119364 0.273817 0.100000
v -0.150000 0.193873 0.100000
v -0.150000 0.193873 -0.100000
v -0.119364 0.273817 -0.100000
v 0.006126 0.349999 -0.100000
v -0.073818 0.319363 -0.100000
vt 0.021341 0.977453
vt 0.021341 0.977453
vt 0.021341 0.977453
vt 0.021341 0.977453
vt 0.021341 0.977453
vt 0.021341 0.977453
vt 0.172797 0.298084
vt 0.158482 0.293742
vt 0.280673 0.004799
vt 0.021341 0.977453
vt 0.021341 0.977453
vt 0.021341 0.977453
vt 0.288193 0.310191
vt 0.426972 0.998157
vt 0.286544 0.998157
vt 0.300782 0.979559
vt 0.300782 0.979559
vt 0.300782 0.979559
vt 0.300782 0.979559
vt 0.300782 0.979559
vt 0.300782 0.979559
vt 0.300782 0.979559
vt 0.300782 0.979559
vt 0.021341 0.977453
vt 0.021341 0.977453
vt 0.021341 0.977453
vt 0.021341 0.977453
vt 0.021341 0.977453
vt 0.021341 0.977453
vt 0.021341 0.977453
vt 0.021341 0.977453
vt 0.021341 0.977453
vt 0.021341 0.977453
vt 0.021341 0.977453
vt 0.021341 0.977453
vt 0.021341 0.977453
vt 0.021341 0.977453
vt 0.021341 0.977453
vt 0.021341 0.977453
vt 0.021341 0.977453
vt 0.021341 0.977453
vt 0.021341 0.977453
vt 0.021341 0.977453
vt 0.021341 0.977453
vt 0.021341 0.977453
vt 0.021341 0.977453
vt 0.021341 0.977453
vt 0.021341 0.977453
vt 0.021341 0.977453
vt 0.021341 0.977453
vt 0.021341 0.977453
vt 0.021341 0.977453
vt 0.021341 0.977453
vt 0.021341 0.977453
vt 0.021341 0.977453
vt 0.021341 0.977453
vt 0.021341 0.977453
vt 0.021341 0.977453
vt 0.021341 0.977453
vt 0.021341 0.977453
vt 0.021341 0.977453
vt 0.021341 0.977453
vt 0.021341 0.977453
vt 0.021341 0.977453
vt 0.021341 0.977453
vt 0.021341 0.977453
vt 0.021341 0.977453
vt 0.021341 0.977453
vt 0.021341 0.977453
vt 0.021341 0.977453
vt 0.021341 0.977453
vt 0.021341 0.977453
vt 0.021341 0.977453
vt 0.021341 0.977453
vt 0.021341 0.977453
vt 0.021341 0.977453
vt 0.021341 0.977453
vt 0.021341 0.977453
vt 0.021341 0.977453
vt 0.021341 0.977453
vt 0.021341 0.977453
vt 0.021341 0.977453
vt 0.021341 0.977453
vt 0.021341 0.977453
vt 0.021341 0.977453
vt 0.016490 0.979703
vt 0.016490 0.979703
vt 0.016490 0.979703
vt 0.021341 0.977453
vt 0.021341 0.977453
vt 0.021341 0.977453
vt 0.021341 0.977453
vt 0.021341 0.977453
vt 0.021341 0.977453
vt 0.021341 0.977453
vt 0.021341 0.977453
vt 0.021341 0.977453
vt 0.021341 0.977453
vt 0.021341 0.977453
vt 0.021341 0.977453
vt 0.021341 0.977453
vt 0.021341 0.977453
vt 0.021341 0.977453
vt 0.021341 0.977453
vt 0.021341 0.977453
vt 0.021341 0.977453
vt 0.021341 0.977453
vt 0.021341 0.977453
vt 0.021341 0.977453
vt 0.021341 0.977453
vt 0.021341 0.977453
vt 0.021341 0.977453
vt 0.021341 0.977453
vt 0.021341 0.977453
vt 0.021341 0.977453
vt 0.021341 0.977453
vt 0.021341 0.977453
vt 0.021341 0.977453
vt 0.021341 0.977453
vt 0.021341 0.977453
vt 0.021341 0.977453
vt 0.045698 0.887214
vt 0.219803 0.992909
vt 0.108889 0.950404
vt 0.021341 0.977453
vt 0.021341 0.977453
vt 0.280673 0.992909
vt 0.003194 0.776300
vt 0.280673 0.302537
vt 0.114394 0.439081
vt 0.128709 0.443423
vt 0.128709 0.293742
vt 0.114394 0.298084
vt 0.003194 0.004799
vt 0.143596 0.292276
vt 0.280673 0.304199
vt 0.185989 0.305136
vt 0.197553 0.314625
vt 0.214094 0.339381
vt 0.207042 0.326189
vt 0.428621 0.310191
vt 0.016490 0.979703
vt 0.016490 0.979703
vt 0.016490 0.979703
vt 0.016490 0.979703
vt 0.016490 0.979703
vt 0.016490 0.979703
vt 0.016490 0.979703
vt 0.016490 0.979703
vt 0.016490 0.979703
vt 0.016490 0.979703
vt 0.016490 0.979703
vt 0.016490 0.979703
vt 0.016490 0.979703
vt 0.016490 0.979703
vt 0.016490 0.979703
vt 0.016490 0.979703
vt 0.016490 0.979703
vt 0.016490 0.979703
vt 0.016490 0.979703
vt 0.016490 0.979703
vt 0.016490 0.979703
vt 0.016490 0.979703
vt 0.016490 0.979703
vt 0.016490 0.979703
vt 0.016490 0.979703
vt 0.016490 0.979703
vt 0.016490 0.979703
vt 0.016490 0.979703
vt 0.016490 0.979703
vt 0.218436 0.353696
vt 0.214094 0.339381
vt 0.114394 0.298084
vt 0.101202 0.305136
vt 0.089639 0.314625
vt 0.219902 0.368582
vt 0.218436 0.383469
vt 0.080149 0.326189
vt 0.073097 0.339381
vt 0.214094 0.397784
vt 0.207042 0.410976
vt 0.068755 0.353696
vt 0.067289 0.368582
vt 0.197553 0.422539
vt 0.068755 0.383469
vt 0.185989 0.432029
vt 0.172797 0.439081
vt 0.073097 0.397784
vt 0.080149 0.410976
vt 0.158482 0.443423
vt 0.143596 0.444889
vt 0.089639 0.422539
vt 0.101202 0.432029
vn -1.0000 0.0000 0.0000
vn 1.0000 0.0000 0.0000
vn 0.0000 0.0000 1.0000
vn 0.0000 -1.0000 0.0000
vn 0.0000 0.0000 -1.0000
vn 0.0000 1.0000 0.0000
vn -0.0980 -0.9952 0.0000
vn -0.2903 -0.9569 0.0000
vn -0.4714 -0.8819 0.0000
vn -0.6344 -0.7730 0.0000
vn -0.7730 -0.6344 0.0000
vn -0.8819 -0.4714 0.0000
vn -0.9569 -0.2903 0.0000
vn -0.9952 -0.0980 0.0000
vn -0.9952 0.0980 0.0000
vn -0.9569 0.2903 0.0000
vn -0.8819 0.4714 0.0000
vn -0.7730 0.6344 0.0000
vn -0.6344 0.7730 0.0000
vn -0.4714 0.8819 0.0000
vn -0.2903 0.9569 0.0000
vn -0.0980 0.9952 0.0000
vn 0.0980 0.9952 0.0000
vn 0.2903 0.9569 0.0000
vn 0.4714 0.8819 0.0000
vn 0.6344 0.7730 0.0000
vn 0.7730 0.6344 0.0000
vn 0.8819 0.4714 0.0000
vn 0.9569 0.2903 0.0000
vn 0.9952 0.0980 0.0000
vn 0.9952 -0.0980 0.0000
vn 0.9569 -0.2903 0.0000
vn 0.8819 -0.4714 0.0000
vn 0.7730 -0.6344 0.0000
vn 0.6344 -0.7730 0.0000
vn 0.4714 -0.8819 0.0000
vn 0.2903 -0.9569 0.0000
vn 0.0980 -0.9952 0.0000
vn -0.7071 0.7071 -0.0000
vn -0.3578 0.9338 -0.0000
vn -0.9338 0.3578 0.0000
s off
f 106/1/1 2/2/1 1/3/1
f 7/4/2 3/5/2 5/6/2
f 65/7/3 45/8/3 3/9/3
f 53/10/3 79/11/3 50/12/3
f 5/6/4 1/3/4 2/2/4
f 8/13/3 10/14/3 4/15/3
f 11/16/2 10/17/2 12/18/2
f 7/19/4 12/18/4 8/20/4
f 6/21/5 11/16/5 7/19/5
f 4/22/6 9/23/6 6/21/6
f 13/24/7 62/25/7 76/26/7
f 14/27/8 66/28/8 62/25/8
f 15/29/9 64/30/9 66/28/9
f 16/31/10 75/32/10 64/30/10
f 17/33/11 68/34/11 75/32/11
f 18/35/12 73/36/12 68/34/12
f 19/37/13 70/38/13 73/36/13
f 20/39/14 69/40/14 70/38/14
f 21/41/15 72/42/15 69/40/15
f 22/43/16 71/44/16 72/42/16
f 23/45/17 67/46/17 71/44/17
f 24/47/18 74/48/18 67/46/18
f 25/49/19 63/50/19 74/48/19
f 26/51/20 65/52/20 63/50/20
f 27/53/21 45/54/21 65/52/21
f 28/55/22 46/56/22 45/54/22
f 29/57/23 47/58/23 46/56/23
f 30/59/24 48/60/24 47/58/24
f 31/61/25 49/62/25 48/60/25
f 32/63/26 52/64/26 49/62/26
f 33/65/27 54/66/27 52/64/27
f 34/67/28 56/68/28 54/66/28
f 35/69/29 51/70/29 56/68/29
f 36/71/30 50/12/30 51/70/30
f 37/72/31 53/10/31 50/12/31
f 38/73/32 55/74/32 53/10/32
f 39/75/33 57/76/33 55/74/33
f 40/77/34 58/78/34 57/76/34
f 41/79/35 61/80/35 58/78/35
f 42/81/36 60/82/36 61/80/36
f 43/83/37 59/84/37 60/82/37
f 44/85/38 76/26/38 59/84/38
f 33/86/3 25/87/3 17/88/3
f 8/89/3 4/90/3 95/91/3
f 7/4/5 107/92/5 6/93/5
f 54/66/3 81/94/3 52/64/3
f 64/30/3 92/95/3 66/28/3
f 55/74/3 82/96/3 53/10/3
f 56/68/3 83/97/3 54/66/3
f 69/40/3 94/98/3 70/38/3
f 57/76/3 84/99/3 55/74/3
f 8/89/3 96/100/3 71/44/3
f 58/78/3 86/101/3 57/76/3
f 71/44/3 97/102/3 72/42/3
f 72/42/3 93/103/3 69/40/3
f 73/36/3 98/104/3 68/34/3
f 59/84/3 89/105/3 60/82/3
f 68/34/3 101/106/3 75/32/3
f 61/80/3 87/107/3 58/78/3
f 75/32/3 100/108/3 64/30/3
f 70/38/3 99/109/3 73/36/3
f 49/62/3 77/110/3 48/60/3
f 76/26/3 88/111/3 59/84/3
f 60/82/3 90/112/3 61/80/3
f 62/25/3 102/113/3 76/26/3
f 1/3/3 48/60/3 77/110/3
f 50/12/3 80/114/3 51/70/3
f 52/64/3 78/115/3 49/62/3
f 51/70/3 85/116/3 56/68/3
f 66/28/3 91/117/3 62/25/3
f 109/118/6 4/90/6 6/93/6
f 110/119/39 105/120/39 104/121/39
f 105/122/3 103/123/3 104/124/3
f 109/118/40 104/121/40 103/125/40
f 107/92/5 110/119/5 109/118/5
f 106/1/41 108/126/41 107/92/41
f 4/127/3 106/128/3 95/129/3
f 89/130/3 88/131/3 106/128/3
f 106/1/1 107/92/1 2/2/1
f 7/4/2 8/89/2 3/5/2
f 47/132/3 48/133/3 1/134/3
f 1/134/3 3/9/3 46/135/3
f 3/9/3 8/136/3 65/7/3
f 63/137/3 8/136/3 74/138/3
f 8/136/3 71/139/3 67/140/3
f 8/136/3 67/140/3 74/138/3
f 46/135/3 47/132/3 1/134/3
f 45/8/3 46/135/3 3/9/3
f 8/136/3 63/137/3 65/7/3
f 53/10/3 82/96/3 79/11/3
f 5/6/4 3/5/4 1/3/4
f 8/13/3 12/141/3 10/14/3
f 11/16/2 9/23/2 10/17/2
f 7/19/4 11/16/4 12/18/4
f 6/21/5 9/23/5 11/16/5
f 4/22/6 10/17/6 9/23/6
f 13/24/7 14/27/7 62/25/7
f 14/27/8 15/29/8 66/28/8
f 15/29/9 16/31/9 64/30/9
f 16/31/10 17/33/10 75/32/10
f 17/33/11 18/35/11 68/34/11
f 18/35/12 19/37/12 73/36/12
f 19/37/13 20/39/13 70/38/13
f 20/39/14 21/41/14 69/40/14
f 21/41/15 22/43/15 72/42/15
f 22/43/16 23/45/16 71/44/16
f 23/45/17 24/47/17 67/46/17
f 24/47/18 25/49/18 74/48/18
f 25/49/19 26/51/19 63/50/19
f 26/51/20 27/53/20 65/52/20
f 27/53/21 28/55/21 45/54/21
f 28/55/22 29/57/22 46/56/22
f 29/57/23 30/59/23 47/58/23
f 30/59/24 31/61/24 48/60/24
f 31/61/25 32/63/25 49/62/25
f 32/63/26 33/65/26 52/64/26
f 33/65/27 34/67/27 54/66/27
f 34/67/28 35/69/28 56/68/28
f 35/69/29 36/71/29 51/70/29
f 36/71/30 37/72/30 50/12/30
f 37/72/31 38/73/31 53/10/31
f 38/73/32 39/75/32 55/74/32
f 39/75/33 40/77/33 57/76/33
f 40/77/34 41/79/34 58/78/34
f 41/79/35 42/81/35 61/80/35
f 42/81/36 43/83/36 60/82/36
f 43/83/37 44/85/37 59/84/37
f 44/85/38 13/24/38 76/26/38
f 41/142/3 40/143/3 39/144/3
f 39/144/3 38/145/3 41/142/3
f 38/145/3 37/146/3 41/142/3
f 37/146/3 36/147/3 33/86/3
f 36/147/3 35/148/3 33/86/3
f 35/148/3 34/149/3 33/86/3
f 33/86/3 32/150/3 29/151/3
f 32/150/3 31/152/3 29/151/3
f 31/152/3 30/153/3 29/151/3
f 29/151/3 28/154/3 27/155/3
f 27/155/3 26/156/3 29/151/3
f 26/156/3 25/87/3 29/151/3
f 25/87/3 24/157/3 21/158/3
f 24/157/3 23/159/3 21/158/3
f 23/159/3 22/160/3 21/158/3
f 21/158/3 20/161/3 19/162/3
f 19/162/3 18/163/3 17/88/3
f 17/88/3 16/164/3 15/165/3
f 15/165/3 14/166/3 17/88/3
f 14/166/3 13/167/3 17/88/3
f 13/167/3 44/168/3 43/169/3
f 43/169/3 42/170/3 13/167/3
f 42/170/3 41/142/3 13/167/3
f 21/158/3 19/162/3 17/88/3
f 41/142/3 37/146/3 33/86/3
f 33/86/3 29/151/3 25/87/3
f 25/87/3 21/158/3 17/88/3
f 17/88/3 13/167/3 41/142/3
f 41/142/3 33/86/3 17/88/3
f 7/4/5 5/6/5 2/2/5
f 2/2/5 107/92/5 7/4/5
f 107/92/5 109/118/5 6/93/5
f 54/66/3 83/97/3 81/94/3
f 64/30/3 100/108/3 92/95/3
f 55/74/3 84/99/3 82/96/3
f 56/68/3 85/116/3 83/97/3
f 69/40/3 93/103/3 94/98/3
f 57/76/3 86/101/3 84/99/3
f 8/89/3 95/91/3 96/100/3
f 58/78/3 87/107/3 86/101/3
f 71/44/3 96/100/3 97/102/3
f 72/42/3 97/102/3 93/103/3
f 73/36/3 99/109/3 98/104/3
f 59/84/3 88/111/3 89/105/3
f 68/34/3 98/104/3 101/106/3
f 61/80/3 90/112/3 87/107/3
f 75/32/3 101/106/3 100/108/3
f 70/38/3 94/98/3 99/109/3
f 49/62/3 78/115/3 77/110/3
f 76/26/3 102/113/3 88/111/3
f 60/82/3 89/105/3 90/112/3
f 62/25/3 91/117/3 102/113/3
f 50/12/3 79/11/3 80/114/3
f 52/64/3 81/94/3 78/115/3
f 51/70/3 80/114/3 85/116/3
f 66/28/3 92/95/3 91/117/3
f 109/118/6 103/125/6 4/90/6
f 110/119/39 108/126/39 105/120/39
f 105/122/3 106/128/3 103/123/3
f 109/118/40 110/119/40 104/121/40
f 107/92/5 108/126/5 110/119/5
f 106/1/41 105/120/41 108/126/41
f 4/127/3 103/123/3 106/128/3
f 97/171/3 96/172/3 95/129/3
f 1/134/3 77/173/3 78/174/3
f 1/134/3 78/174/3 81/175/3
f 93/176/3 97/171/3 95/129/3
f 94/177/3 93/176/3 95/129/3
f 1/134/3 81/175/3 83/178/3
f 1/134/3 83/178/3 85/179/3
f 99/180/3 94/177/3 95/129/3
f 98/181/3 99/180/3 95/129/3
f 1/134/3 85/179/3 80/182/3
f 1/134/3 80/182/3 79/183/3
f 98/181/3 95/129/3 106/128/3
f 101/184/3 98/181/3 106/128/3
f 106/128/3 1/134/3 79/183/3
f 106/128/3 79/183/3 82/185/3
f 100/186/3 101/184/3 106/128/3
f 92/187/3 100/186/3 106/128/3
f 106/128/3 82/185/3 84/188/3
f 106/128/3 84/188/3 86/189/3
f 91/190/3 92/187/3 106/128/3
f 102/191/3 91/190/3 106/128/3
f 106/128/3 86/189/3 87/192/3
f 106/128/3 87/192/3 90/193/3
f 88/131/3 102/191/3 106/128/3
f 106/128/3 90/193/3 89/130/3
