# Blender v2.93.4 OBJ File: 'instrucctions.blend'
# www.blender.org
o loop_preview_Cube.017
v -0.100000 -0.250000 0.100000
v -0.100000 -0.250000 -0.100000
v -0.100000 -0.050000 -0.100000
v -0.000000 -0.250000 0.100000
v -0.000000 -0.050000 0.100000
v -0.000000 -0.250000 -0.100000
v -0.300000 -0.249999 0.100000
v -0.300000 -0.249999 -0.100000
v -0.100000 0.449999 0.100000
v -0.100000 0.449999 -0.100000
v -0.100000 -0.050000 0.100000
v 0.000000 0.449999 -0.100000
v 0.000000 -0.050000 -0.100000
v -0.200000 0.055000 0.025000
v -0.189270 0.053943 0.025000
v -0.178952 0.050813 0.025000
v -0.169444 0.045731 0.025000
v -0.161109 0.038891 0.025000
v -0.154269 0.030556 0.025000
v -0.149187 0.021048 0.025000
v -0.146057 0.010730 0.025000
v -0.145000 0.000000 0.025000
v -0.146057 -0.010730 0.025000
v -0.149187 -0.021048 0.025000
v -0.154269 -0.030556 0.025000
v -0.161109 -0.038891 0.025000
v -0.169444 -0.045731 0.025000
v -0.178952 -0.050813 0.025000
v -0.189270 -0.053943 0.025000
v -0.200000 -0.055000 0.025000
v -0.210730 -0.053943 0.025000
v -0.221048 -0.050813 0.025000
v -0.230556 -0.045731 0.025000
v -0.238891 -0.038891 0.025000
v -0.245731 -0.030556 0.025000
v -0.250813 -0.021048 0.025000
v -0.253943 -0.010730 0.025000
v -0.255000 0.000000 0.025000
v -0.253943 0.010730 0.025000
v -0.250813 0.021048 0.025000
v -0.245731 0.030556 0.025000
v -0.238891 0.038891 0.025000
v -0.230556 0.045731 0.025000
v -0.221048 0.050813 0.025000
v -0.210730 0.053943 0.025000
v -0.189270 -0.053943 0.100000
v -0.200000 -0.055000 0.100000
v -0.210730 -0.053943 0.100000
v -0.221048 -0.050813 0.100000
v -0.253943 0.010730 0.100000
v -0.250813 -0.021048 0.100000
v -0.210730 0.053943 0.100000
v -0.189270 0.053943 0.100000
v -0.169444 -0.045731 0.100000
v -0.178952 -0.050813 0.100000
v -0.178952 0.050813 0.100000
v -0.154269 -0.030556 0.100000
v -0.146057 -0.010730 0.100000
v -0.161109 -0.038891 0.100000
v -0.161109 0.038891 0.100000
v -0.230556 -0.045731 0.100000
v -0.255000 0.000000 0.100000
v -0.253943 -0.010730 0.100000
v -0.238891 -0.038891 0.100000
v -0.245731 -0.030556 0.100000
v -0.250813 0.021048 0.100000
v -0.245731 0.030556 0.100000
v -0.238891 0.038891 0.100000
v -0.221048 0.050813 0.100000
v -0.230556 0.045731 0.100000
v -0.145000 0.000000 0.100000
v -0.146057 0.010730 0.100000
v -0.149187 -0.021048 0.100000
v -0.154269 0.030556 0.100000
v -0.149187 0.021048 0.100000
v -0.169444 0.045731 0.100000
v -0.200000 0.055000 0.100000
v -0.143874 0.449999 0.100000
v -0.223818 0.419363 0.100000
v -0.269364 0.373817 0.100000
v -0.300000 0.293873 0.100000
v -0.300000 0.293873 -0.100000
v -0.269364 0.373817 -0.100000
v -0.143874 0.449999 -0.100000
v -0.223818 0.419363 -0.100000
v 0.000000 0.449999 0.100000
v 0.200000 -0.249999 0.100000
v 0.200000 0.249999 0.100000
v 0.200000 -0.249999 -0.100000
v 0.200000 0.249999 -0.100000
v 0.300000 0.249999 -0.100000
v 0.300000 -0.249999 -0.100000
v 0.300000 -0.249999 0.100000
v 0.300000 0.249999 0.100000
v 0.200000 -0.050000 0.100000
v 0.200000 -0.050000 -0.100000
v 0.300000 -0.050000 0.100000
v 0.300000 -0.050000 -0.100000
v 0.058283 0.449999 -0.100000
v 0.129858 0.422571 -0.100000
v 0.172571 0.379858 -0.100000
v 0.200000 0.308282 -0.100000
v 0.200000 0.308282 0.100000
v 0.172571 0.379858 0.100000
v 0.058282 0.449999 0.100000
v 0.129858 0.422571 0.100000
vt 0.312194 0.268352
vt 0.312194 0.268352
vt 0.312194 0.268352
vt 0.564665 0.005635
vt 0.288303 0.302822
vt 0.288303 0.005693
vt 0.312194 0.268352
vt 0.021341 0.977453
vt 0.021341 0.977453
vt 0.021341 0.977453
vt 0.172797 0.298084
vt 0.158482 0.293742
vt 0.280673 0.004799
vt 0.021341 0.977453
vt 0.288193 0.310191
vt 0.426972 0.998157
vt 0.286544 0.998157
vt 0.300782 0.979559
vt 0.300782 0.979559
vt 0.300782 0.979559
vt 0.300782 0.979559
vt 0.300782 0.979559
vt 0.021341 0.977453
vt 0.021341 0.977453
vt 0.021341 0.977453
vt 0.021341 0.977453
vt 0.021341 0.977453
vt 0.021341 0.977453
vt 0.021341 0.977453
vt 0.021341 0.977453
vt 0.021341 0.977453
vt 0.021341 0.977453
vt 0.021341 0.977453
vt 0.021341 0.977453
vt 0.021341 0.977453
vt 0.021341 0.977453
vt 0.021341 0.977453
vt 0.021341 0.977453
vt 0.021341 0.977453
vt 0.021341 0.977453
vt 0.021341 0.977453
vt 0.021341 0.977453
vt 0.021341 0.977453
vt 0.021341 0.977453
vt 0.021341 0.977453
vt 0.021341 0.977453
vt 0.021341 0.977453
vt 0.021341 0.977453
vt 0.021341 0.977453
vt 0.021341 0.977453
vt 0.021341 0.977453
vt 0.021341 0.977453
vt 0.021341 0.977453
vt 0.021341 0.977453
vt 0.021341 0.977453
vt 0.021341 0.977453
vt 0.021341 0.977453
vt 0.021341 0.977453
vt 0.021341 0.977453
vt 0.021341 0.977453
vt 0.021341 0.977453
vt 0.021341 0.977453
vt 0.021341 0.977453
vt 0.021341 0.977453
vt 0.021341 0.977453
vt 0.021341 0.977453
vt 0.021341 0.977453
vt 0.021341 0.977453
vt 0.021341 0.977453
vt 0.021341 0.977453
vt 0.021341 0.977453
vt 0.021341 0.977453
vt 0.021341 0.977453
vt 0.021341 0.977453
vt 0.021341 0.977453
vt 0.021341 0.977453
vt 0.021341 0.977453
vt 0.021341 0.977453
vt 0.021341 0.977453
vt 0.021341 0.977453
vt 0.021341 0.977453
vt 0.021341 0.977453
vt 0.021341 0.977453
vt 0.021341 0.977453
vt 0.021341 0.977453
vt 0.021341 0.977453
vt 0.016490 0.979703
vt 0.016490 0.979703
vt 0.016490 0.979703
vt 0.021341 0.977453
vt 0.021341 0.977453
vt 0.021341 0.977453
vt 0.021341 0.977453
vt 0.021341 0.977453
vt 0.021341 0.977453
vt 0.021341 0.977453
vt 0.021341 0.977453
vt 0.045698 0.887214
vt 0.219803 0.992909
vt 0.108889 0.950404
vt 0.021341 0.977453
vt 0.021341 0.977453
vt 0.280673 0.992909
vt 0.003194 0.776300
vt 0.280673 0.302537
vt 0.114394 0.439081
vt 0.128709 0.443423
vt 0.591107 0.980331
vt 0.591107 0.980331
vt 0.591107 0.980331
vt 0.591107 0.980331
vt 0.591107 0.980331
vt 0.591107 0.980331
vt 0.869263 0.721693
vt 0.869263 0.721693
vt 0.869263 0.721693
vt 0.886175 0.713524
vt 0.886175 0.713524
vt 0.886175 0.713524
vt 0.860697 0.005487
vt 0.997127 0.303990
vt 0.860697 0.303989
vt 0.878781 0.712909
vt 0.878781 0.712909
vt 0.878781 0.712909
vt 0.860697 0.304517
vt 0.997127 0.734956
vt 0.860697 0.734956
vt 0.880898 0.708247
vt 0.880898 0.708247
vt 0.880898 0.708247
vt 0.869263 0.721693
vt 0.869263 0.721693
vt 0.852226 0.005928
vt 0.571262 0.303574
vt 0.571262 0.005928
vt 0.591107 0.980331
vt 0.591107 0.980331
vt 0.878781 0.712909
vt 0.878781 0.712909
vt 0.878781 0.712909
vt 0.591107 0.980331
vt 0.591107 0.980331
vt 0.571262 0.996494
vt 0.851748 0.734723
vt 0.591107 0.980331
vt 0.591107 0.980331
vt 0.591107 0.980331
vt 0.591107 0.980331
vt 0.591107 0.980331
vt 0.312194 0.268352
vt 0.564665 0.303369
vt 0.312194 0.268352
vt 0.128709 0.293742
vt 0.114394 0.298084
vt 0.003194 0.004799
vt 0.143596 0.292276
vt 0.280673 0.304199
vt 0.185989 0.305136
vt 0.197553 0.314625
vt 0.214094 0.339381
vt 0.207042 0.326189
vt 0.021341 0.977453
vt 0.428621 0.310191
vt 0.300782 0.979559
vt 0.016490 0.979703
vt 0.016490 0.979703
vt 0.016490 0.979703
vt 0.016490 0.979703
vt 0.016490 0.979703
vt 0.016490 0.979703
vt 0.016490 0.979703
vt 0.016490 0.979703
vt 0.016490 0.979703
vt 0.016490 0.979703
vt 0.016490 0.979703
vt 0.016490 0.979703
vt 0.016490 0.979703
vt 0.016490 0.979703
vt 0.016490 0.979703
vt 0.016490 0.979703
vt 0.016490 0.979703
vt 0.016490 0.979703
vt 0.016490 0.979703
vt 0.016490 0.979703
vt 0.016490 0.979703
vt 0.016490 0.979703
vt 0.016490 0.979703
vt 0.016490 0.979703
vt 0.016490 0.979703
vt 0.016490 0.979703
vt 0.016490 0.979703
vt 0.016490 0.979703
vt 0.016490 0.979703
vt 0.218436 0.353696
vt 0.101202 0.305136
vt 0.089639 0.314625
vt 0.219902 0.368582
vt 0.218436 0.383469
vt 0.080149 0.326189
vt 0.073097 0.339381
vt 0.214094 0.397784
vt 0.207042 0.410976
vt 0.068755 0.353696
vt 0.067289 0.368582
vt 0.197553 0.422539
vt 0.068755 0.383469
vt 0.185989 0.432029
vt 0.172797 0.439081
vt 0.073097 0.397784
vt 0.080149 0.410976
vt 0.158482 0.443423
vt 0.143596 0.444889
vt 0.089639 0.422539
vt 0.101202 0.432029
vt 0.591107 0.980331
vt 0.591107 0.980331
vt 0.869263 0.721693
vt 0.886175 0.713524
vt 0.997128 0.005487
vt 0.878781 0.712909
vt 0.997127 0.304517
vt 0.880898 0.708247
vt 0.852226 0.303574
vt 0.878781 0.712909
vt 0.591107 0.980331
vt 0.851984 0.811007
vt 0.653235 0.996494
vn 0.0000 0.0000 -1.0000
vn 0.0000 0.0000 1.0000
vn 0.0000 -1.0000 0.0000
vn -1.0000 0.0000 0.0000
vn 0.0000 1.0000 0.0000
vn -0.0980 -0.9952 0.0000
vn -0.2903 -0.9569 0.0000
vn -0.4714 -0.8819 0.0000
vn -0.6344 -0.7730 0.0000
vn -0.7730 -0.6344 0.0000
vn -0.8819 -0.4714 0.0000
vn -0.9569 -0.2903 0.0000
vn -0.9952 -0.0980 0.0000
vn -0.9952 0.0980 0.0000
vn -0.9569 0.2903 0.0000
vn -0.8819 0.4714 0.0000
vn -0.7730 0.6344 0.0000
vn -0.6344 0.7730 0.0000
vn -0.4714 0.8819 0.0000
vn -0.2903 0.9569 0.0000
vn -0.0980 0.9952 0.0000
vn 0.0980 0.9952 0.0000
vn 0.2903 0.9569 0.0000
vn 0.4714 0.8819 0.0000
vn 0.6344 0.7730 0.0000
vn 0.7730 0.6344 0.0000
vn 0.8819 0.4714 0.0000
vn 0.9569 0.2903 0.0000
vn 0.9952 0.0980 0.0000
vn 0.9952 -0.0980 0.0000
vn 0.9569 -0.2903 0.0000
vn 0.8819 -0.4714 0.0000
vn 0.7730 -0.6344 0.0000
vn 0.6344 -0.7730 0.0000
vn 0.4714 -0.8819 0.0000
vn 0.2903 -0.9569 0.0000
vn 0.0980 -0.9952 0.0000
vn -0.7071 0.7071 0.0000
vn -0.3578 0.9338 0.0000
vn -0.9338 0.3578 0.0000
vn 1.0000 0.0000 0.0000
vn 0.3578 0.9338 0.0000
vn 0.9338 0.3578 0.0000
vn 0.7071 0.7071 0.0000
s off
f 2/1/1 13/2/1 6/3/1
f 4/4/2 11/5/2 1/6/2
f 6/3/3 1/7/3 2/1/3
f 81/8/4 8/9/4 7/10/4
f 55/11/2 46/12/2 1/13/2
f 2/14/3 7/10/3 8/9/3
f 11/15/2 86/16/2 9/17/2
f 10/18/1 13/19/1 3/20/1
f 9/21/5 12/22/5 10/18/5
f 14/23/6 53/24/6 77/25/6
f 15/26/7 56/27/7 53/24/7
f 16/28/8 76/29/8 56/27/8
f 17/30/9 60/31/9 76/29/9
f 18/32/10 74/33/10 60/31/10
f 19/34/11 75/35/11 74/33/11
f 20/36/12 72/37/12 75/35/12
f 21/38/13 71/39/13 72/37/13
f 22/40/14 58/41/14 71/39/14
f 23/42/15 73/43/15 58/41/15
f 24/44/16 57/45/16 73/43/16
f 25/46/17 59/47/17 57/45/17
f 26/48/18 54/49/18 59/47/18
f 27/50/19 55/51/19 54/49/19
f 28/52/20 46/53/20 55/51/20
f 29/54/21 47/55/21 46/53/21
f 30/56/22 48/57/22 47/55/22
f 31/58/23 49/59/23 48/57/23
f 32/60/24 61/61/24 49/59/24
f 33/62/25 64/63/25 61/61/25
f 34/64/26 65/65/26 64/63/26
f 35/66/27 51/67/27 65/65/27
f 36/68/28 63/69/28 51/67/28
f 37/70/29 62/71/29 63/69/29
f 38/72/30 50/73/30 62/71/30
f 39/74/31 66/75/31 50/73/31
f 40/76/32 67/77/32 66/75/32
f 41/78/33 68/79/33 67/77/33
f 42/80/34 70/81/34 68/79/34
f 43/82/35 69/83/35 70/81/35
f 44/84/36 52/85/36 69/83/36
f 45/86/37 77/25/37 52/85/37
f 34/87/2 26/88/2 18/89/2
f 3/90/1 82/91/1 10/92/1
f 84/93/5 9/94/5 10/92/5
f 85/95/38 80/96/38 79/97/38
f 80/98/2 78/99/2 79/100/2
f 84/93/39 79/97/39 78/101/39
f 82/91/1 85/95/1 84/93/1
f 81/8/40 83/102/40 82/91/40
f 9/103/2 81/104/2 11/105/2
f 69/106/2 52/107/2 81/104/2
f 12/108/1 102/109/1 90/110/1
f 89/111/3 4/112/3 6/113/3
f 98/114/41 94/115/41 97/116/41
f 90/117/1 98/118/1 96/119/1
f 87/120/2 97/121/2 95/122/2
f 89/123/3 93/124/3 87/125/3
f 95/126/2 94/127/2 88/128/2
f 96/129/1 92/130/1 89/131/1
f 98/114/41 93/132/41 92/133/41
f 87/134/2 5/135/2 4/136/2
f 13/137/1 89/111/1 6/113/1
f 102/109/41 88/138/41 90/110/41
f 94/139/5 90/140/5 88/141/5
f 12/108/5 105/142/5 99/143/5
f 86/144/2 5/135/2 88/145/2
f 99/143/1 101/146/1 102/109/1
f 99/143/42 106/147/42 100/148/42
f 103/149/2 106/147/2 105/142/2
f 103/149/43 101/146/43 104/150/43
f 100/148/44 104/150/44 101/146/44
f 2/1/1 3/151/1 13/2/1
f 4/4/2 5/152/2 11/5/2
f 6/3/3 4/153/3 1/7/3
f 81/8/4 82/91/4 8/9/4
f 48/154/2 49/155/2 7/156/2
f 7/156/2 1/13/2 47/157/2
f 1/13/2 11/158/2 55/11/2
f 54/159/2 11/158/2 59/160/2
f 11/158/2 73/161/2 57/162/2
f 11/158/2 57/162/2 59/160/2
f 47/157/2 48/154/2 7/156/2
f 46/12/2 47/157/2 1/13/2
f 11/158/2 54/159/2 55/11/2
f 2/14/3 1/163/3 7/10/3
f 11/15/2 5/164/2 86/16/2
f 10/18/1 12/22/1 13/19/1
f 9/21/5 86/165/5 12/22/5
f 14/23/6 15/26/6 53/24/6
f 15/26/7 16/28/7 56/27/7
f 16/28/8 17/30/8 76/29/8
f 17/30/9 18/32/9 60/31/9
f 18/32/10 19/34/10 74/33/10
f 19/34/11 20/36/11 75/35/11
f 20/36/12 21/38/12 72/37/12
f 21/38/13 22/40/13 71/39/13
f 22/40/14 23/42/14 58/41/14
f 23/42/15 24/44/15 73/43/15
f 24/44/16 25/46/16 57/45/16
f 25/46/17 26/48/17 59/47/17
f 26/48/18 27/50/18 54/49/18
f 27/50/19 28/52/19 55/51/19
f 28/52/20 29/54/20 46/53/20
f 29/54/21 30/56/21 47/55/21
f 30/56/22 31/58/22 48/57/22
f 31/58/23 32/60/23 49/59/23
f 32/60/24 33/62/24 61/61/24
f 33/62/25 34/64/25 64/63/25
f 34/64/26 35/66/26 65/65/26
f 35/66/27 36/68/27 51/67/27
f 36/68/28 37/70/28 63/69/28
f 37/70/29 38/72/29 62/71/29
f 38/72/30 39/74/30 50/73/30
f 39/74/31 40/76/31 66/75/31
f 40/76/32 41/78/32 67/77/32
f 41/78/33 42/80/33 68/79/33
f 42/80/34 43/82/34 70/81/34
f 43/82/35 44/84/35 69/83/35
f 44/84/36 45/86/36 52/85/36
f 45/86/37 14/23/37 77/25/37
f 42/166/2 41/167/2 40/168/2
f 40/168/2 39/169/2 42/166/2
f 39/169/2 38/170/2 42/166/2
f 38/170/2 37/171/2 34/87/2
f 37/171/2 36/172/2 34/87/2
f 36/172/2 35/173/2 34/87/2
f 34/87/2 33/174/2 32/175/2
f 32/175/2 31/176/2 34/87/2
f 31/176/2 30/177/2 34/87/2
f 30/177/2 29/178/2 26/88/2
f 29/178/2 28/179/2 26/88/2
f 28/179/2 27/180/2 26/88/2
f 26/88/2 25/181/2 22/182/2
f 25/181/2 24/183/2 22/182/2
f 24/183/2 23/184/2 22/182/2
f 22/182/2 21/185/2 18/89/2
f 21/185/2 20/186/2 18/89/2
f 20/186/2 19/187/2 18/89/2
f 18/89/2 17/188/2 16/189/2
f 16/189/2 15/190/2 18/89/2
f 15/190/2 14/191/2 18/89/2
f 14/191/2 45/192/2 44/193/2
f 44/193/2 43/194/2 42/166/2
f 14/191/2 44/193/2 18/89/2
f 44/193/2 42/166/2 18/89/2
f 42/166/2 38/170/2 34/87/2
f 34/87/2 30/177/2 26/88/2
f 26/88/2 22/182/2 18/89/2
f 42/166/2 34/87/2 18/89/2
f 3/90/1 2/14/1 8/9/1
f 8/9/1 82/91/1 3/90/1
f 82/91/1 84/93/1 10/92/1
f 84/93/5 78/101/5 9/94/5
f 85/95/38 83/102/38 80/96/38
f 80/98/2 81/104/2 78/99/2
f 84/93/39 85/95/39 79/97/39
f 82/91/1 83/102/1 85/95/1
f 81/8/40 80/96/40 83/102/40
f 9/103/2 78/99/2 81/104/2
f 58/195/2 73/161/2 11/105/2
f 7/156/2 49/155/2 61/196/2
f 7/156/2 61/196/2 64/197/2
f 71/198/2 58/195/2 11/105/2
f 72/199/2 71/198/2 11/105/2
f 7/156/2 64/197/2 65/200/2
f 7/156/2 65/200/2 51/201/2
f 75/202/2 72/199/2 11/105/2
f 74/203/2 75/202/2 11/105/2
f 7/156/2 51/201/2 63/204/2
f 7/156/2 63/204/2 62/205/2
f 74/203/2 11/105/2 81/104/2
f 60/206/2 74/203/2 81/104/2
f 81/104/2 7/156/2 62/205/2
f 81/104/2 62/205/2 50/207/2
f 76/208/2 60/206/2 81/104/2
f 56/209/2 76/208/2 81/104/2
f 81/104/2 50/207/2 66/210/2
f 81/104/2 66/210/2 67/211/2
f 53/212/2 56/209/2 81/104/2
f 77/213/2 53/212/2 81/104/2
f 81/104/2 67/211/2 68/214/2
f 81/104/2 68/214/2 70/215/2
f 52/107/2 77/213/2 81/104/2
f 81/104/2 70/215/2 69/106/2
f 96/216/1 13/137/1 90/110/1
f 13/137/1 12/108/1 90/110/1
f 12/108/1 99/143/1 102/109/1
f 89/111/3 87/217/3 4/112/3
f 98/114/41 91/218/41 94/115/41
f 90/117/1 91/219/1 98/118/1
f 87/120/2 93/220/2 97/121/2
f 89/123/3 92/221/3 93/124/3
f 95/126/2 97/222/2 94/127/2
f 96/129/1 98/223/1 92/130/1
f 98/114/41 97/116/41 93/132/41
f 87/134/2 95/224/2 5/135/2
f 13/137/1 96/216/1 89/111/1
f 102/109/41 103/149/41 88/138/41
f 94/139/5 91/225/5 90/140/5
f 12/108/5 86/226/5 105/142/5
f 5/135/2 95/224/2 88/145/2
f 88/145/2 103/227/2 105/228/2
f 105/228/2 86/144/2 88/145/2
f 99/143/1 100/148/1 101/146/1
f 99/143/42 105/142/42 106/147/42
f 103/149/2 104/150/2 106/147/2
f 103/149/43 102/109/43 101/146/43
f 100/148/44 106/147/44 104/150/44
