# Blender v2.93.4 OBJ File: 'selector.blend'
# www.blender.org
o cursor_Cube.001
v -0.047432 -0.023472 0.033104
v -0.047438 0.049252 0.033104
v -0.047432 -0.023472 -0.033104
v -0.047438 0.049252 -0.033104
v 0.047387 -0.023463 0.033104
v 0.047381 0.049262 0.033104
v 0.047387 -0.023463 -0.033104
v 0.047381 0.049262 -0.033104
v 0.000201 -0.071951 -0.033104
v 0.000190 0.049257 -0.033104
v 0.000201 -0.071951 0.033104
v 0.000190 0.049257 0.033104
vt 0.375000 0.000000
vt 0.625000 0.000000
vt 0.625000 0.250000
vt 0.375000 0.250000
vt 0.375000 0.375576
vt 0.625000 0.375576
vt 0.625000 0.500000
vt 0.375000 0.500000
vt 0.625000 0.750000
vt 0.375000 0.750000
vt 0.375000 0.874424
vt 0.625000 0.874424
vt 0.625000 1.000000
vt 0.375000 1.000000
vt 0.250576 0.500000
vt 0.250576 0.750000
vt 0.749424 0.500000
vt 0.875000 0.500000
vt 0.875000 0.750000
vt 0.749424 0.750000
vt 0.125000 0.500000
vt 0.125000 0.750000
vn -1.0000 -0.0001 0.0000
vn 0.0000 0.0000 -1.0000
vn 1.0000 0.0001 0.0000
vn 0.0000 0.0000 1.0000
vn 0.7167 -0.6974 0.0000
vn -0.0001 1.0000 0.0000
vn -0.7133 -0.7009 0.0000
s off
f 1/1/1 2/2/1 4/3/1 3/4/1
f 9/5/2 10/6/2 8/7/2 7/8/2
f 7/8/3 8/7/3 6/9/3 5/10/3
f 11/11/4 12/12/4 2/13/4 1/14/4
f 9/15/5 7/8/5 5/10/5 11/16/5
f 10/17/6 4/18/6 2/19/6 12/20/6
f 8/7/6 10/17/6 12/20/6 6/9/6
f 3/21/7 9/15/7 11/16/7 1/22/7
f 5/10/4 6/9/4 12/12/4 11/11/4
f 3/4/2 4/3/2 10/6/2 9/5/2
